<svg aria-hidden="true" style="position:absolute;width:0;height:0" xmlns="http://www.w3.org/2000/svg" overflow="hidden"><defs><symbol id="icon-antenna" viewBox="0 0 32 32"><path fill="var(--color1, #212121)" d="M30.773 22.098l-8.443-8.505.937-4.615c.242.094.499.144.758.146h.006a2.159 2.159 0 10-2.008-1.435l-4.96.605L8.972.161a.534.534 0 00-.377-.16.532.532 0 00-.373.155L6.709 1.66a.534.534 0 000 .754l.814.826a14.943 14.943 0 002.519 17.663.513.513 0 00.146.098c-.034.18-.051.364-.052.547v6.187h-6.4a2.67 2.67 0 00-2.667 2.667v1.067c0 .295.239.533.533.533h24.533a.533.533 0 00.533-.533v-1.067a2.67 2.67 0 00-2.667-2.667h-6.4v-2.742a15.09 15.09 0 003.049.32 14.854 14.854 0 007.04-1.783l.818.823a.534.534 0 00.377.16.532.532 0 00.373-.155l1.513-1.504a.534.534 0 000-.754zM23.28 6.233a1.066 1.066 0 11.752 1.822h-.003a1.067 1.067 0 01-.747-1.823h-.002zm-1.256 3.505l-.598 2.946-1.175-1.182 1.774-1.763zm-.605-.902l-1.92 1.909-1.485-1.493 3.405-.415zM24.004 28.8a1.6 1.6 0 011.6 1.6v.533H2.137V30.4a1.6 1.6 0 011.6-1.6h20.267zm-7.467-2.133v1.067h-5.333v-1.067h5.333zM11.204 25.6v-4.053c0-1.294 1.196-2.347 2.667-2.347s2.667 1.053 2.667 2.347V25.6h-5.333zm6.4-1.696v-2.357c0-1.882-1.675-3.413-3.733-3.413a3.8 3.8 0 00-3.281 1.786A13.87 13.87 0 018.311 4.033l18.602 18.708a13.818 13.818 0 01-9.309 1.163zm11.289-.684L7.836 2.039l.755-.752 7.935 7.98c.004 0 .006.007.01.01l13.115 13.191-.757.752z"/><path fill="var(--color2, #2196f3)" d="M13.876 20.267h-.005a1.6 1.6 0 10-.004 3.2h.005a1.6 1.6 0 10.004-3.2zm.373 1.978a.534.534 0 11-.379-.911.532.532 0 01.373.911h.005z"/></symbol><symbol id="icon-astronaut" viewBox="0 0 32 32"><path fill="var(--color2, #2196f3)" d="M31.974 4.524a.534.534 0 00-.43-.363l-1.91-.278-.855-1.731c-.179-.365-.777-.365-.956 0l-.855 1.731-1.91.278a.535.535 0 00-.296.91l1.383 1.348-.326 1.903c-.034.2.048.402.212.522a.53.53 0 00.562.04l1.709-.899 1.709.899a.536.536 0 00.775-.563l-.326-1.903 1.383-1.348a.536.536 0 00.135-.547zm-2.463 1.327a.534.534 0 00-.153.472l.191 1.114-1-.526a.533.533 0 00-.498 0l-1.001.526.191-1.114a.534.534 0 00-.153-.472l-.81-.789 1.119-.163a.532.532 0 00.402-.292l.5-1.013.5 1.013a.535.535 0 00.402.292l1.119.163-.809.789zM26.133 20.522h-1.067v1.067h1.067v-1.067zM26.133 22.656h-1.067v1.067h1.067v-1.067zM27.2 21.589h-1.067v1.067H27.2v-1.067zM25.067 21.589H24v1.067h1.067v-1.067zM22.4 26.389h-1.067v1.067H22.4v-1.067zM22.4 28.522h-1.067v1.067H22.4v-1.067zM23.467 27.456H22.4v1.067h1.067v-1.067zM21.333 27.456h-1.067v1.067h1.067v-1.067zM16 24.256h-1.067v1.067H16v-1.067zM16 26.389h-1.067v1.067H16v-1.067zM17.067 25.322H16v1.067h1.067v-1.067zM14.933 25.322h-1.067v1.067h1.067v-1.067zM5.866 6.122H4.799v1.067h1.067V6.122zM5.866 8.255H4.799v1.067h1.067V8.255z"/><path fill="var(--color2, #2196f3)" d="M6.933 7.189H5.866v1.067h1.067V7.189zM4.8 7.189H3.733v1.067H4.8V7.189z"/><path fill="var(--color1, #212121)" d="M24.715 14.159a1.775 1.775 0 00-1.188-.705 1.778 1.778 0 00-1.34.352l-1.252.96-1.898 1.417-1.358-.541c2.421-1.086 4.114-3.508 4.114-6.32 0-3.823-3.123-6.933-6.961-6.933s-6.961 3.11-6.961 6.933a6.86 6.86 0 001.12 3.758l-2.764-.024h-.005c-.009 0-.015.004-.023.005a.515.515 0 00-.155.031l-.038.013c-.006.003-.013.003-.019.006l-3.233 1.596-.001.001-1.893.911a.397.397 0 00-.063.035 1.779 1.779 0 00-.598 2.295c.22.429.595.745 1.056.889a1.776 1.776 0 001.378-.128l1.388-.738 2.264-1.169 1.357-.008L2.2 22.211l-.002.001-1.339 1.333c-.316.315-.49.732-.49 1.178s.174.863.49 1.179c.325.323.752.485 1.179.485s.854-.162 1.18-.485l1.314-1.309 1.741-1.3.901.897-1.762 1.754-.002.001-1.339 1.333c-.316.315-.49.732-.49 1.178s.174.863.49 1.179c.325.323.753.485 1.18.485s.855-.162 1.18-.485l3.482-3.467.001-.002 1.01-1-.004-.004c.006-.006.015-.009.022-.015l5.166-5.658 3.471.494a.52.52 0 00.262-.033c.018-.006.033-.015.05-.023.019-.01.039-.015.058-.027l3.213-2.133c.012-.008.018-.021.029-.029.013-.01.029-.014.041-.026l1.271-1.191c.662-.62.753-1.635.212-2.362zM2.13 17.77a.714.714 0 01-.558.052.717.717 0 01-.213-1.26l1.314-.632.449 1.312-.992.527zm3.498-1.828l-1.548.8-.439-1.283 2.027-1.001-.04 1.484zm15.099-6.62a5.79 5.79 0 01-.599 2.559l-4.181-1.899a1.863 1.863 0 00-.788-1.388l1.464-4.86c2.378.756 4.105 2.974 4.105 5.588zm-11.789 0c0-3.235 2.644-5.867 5.894-5.867.253 0 .5.021.745.052l-1.432 4.754c-.019-.001-.037-.006-.057-.006-1.033 0-1.873.837-1.873 1.867s.84 1.867 1.873 1.867c.694 0 1.294-.383 1.618-.945l3.862 1.755a5.894 5.894 0 01-4.737 2.39c-3.25 0-5.894-2.632-5.894-5.867zm5.956.8c0 .441-.362.8-.806.8s-.806-.359-.806-.8c0-.441.362-.8.806-.8s.806.359.806.8zM2.465 25.146a.608.608 0 01-.854.001.592.592 0 010-.844l.962-.958.851.848-.959.955zm3.214 3.734a.608.608 0 01-.855.001.592.592 0 010-.844l.963-.959.852.848-.96.955zm3.481-3.469l-.002.001-1.765 1.76-.852-.848 1.763-1.755.002-.001c.04-.04.065-.088.09-.135.007-.014.02-.026.026-.04.017-.041.019-.085.026-.129.003-.025.014-.047.014-.073 0-.036-.013-.07-.02-.106-.006-.032-.006-.065-.019-.095a.55.55 0 00-.091-.138c-.01-.012-.014-.027-.025-.038h-.001l-.001-.002-1.607-1.6c-.017-.017-.039-.024-.058-.038a.507.507 0 00-.087-.058.515.515 0 00-.093-.033.507.507 0 00-.103-.02.5.5 0 00-.095.005.53.53 0 00-.104.02.477.477 0 00-.094.045c-.02.011-.042.015-.061.029L4.23 23.486l-.901-.897 2.399-2.386 4.361 4.289-.928.919zm6.819-7.017c-.015-.002-.03.004-.045.003a.556.556 0 00-.3.075.492.492 0 00-.083.061c-.013.011-.028.017-.04.029l-4.698 5.146-4.328-4.257 2.833-2.818a.534.534 0 00-.379-.911v-.001l-2.219.013.028-1.607 3.104.027a6.947 6.947 0 004.981 2.101c.437 0 .864-.045 1.279-.123.04.032.079.065.13.085l2.41.96.152.758.178.885-3.003-.427zm4.041.178l-.313-1.558 1.446-1.08.947 1.257-2.08 1.381zm3.754-2.831l-.838.785-.931-1.236.831-.637a.735.735 0 01.543-.143.718.718 0 01.48.284.713.713 0 01-.085.947z"/><path fill="var(--color1, #212121)" d="M13.602 18.544l-2.143-2.133a.534.534 0 00-.753 0l-2.142 2.133a.537.537 0 000 .756l2.142 2.133a.536.536 0 00.753 0l2.143-2.133a.535.535 0 000-.756zm-2.519 1.759l-1.387-1.381 1.387-1.381 1.387 1.381-1.387 1.381zM17.164 5.071l-.258 1.036c.071.018 1.738.452 1.738 2.149h1.067c0-2.017-1.666-2.965-2.547-3.185zM19.711 9.322h-1.067v1.067h1.067V9.322z"/></symbol><symbol id="icon-clock" viewBox="0 0 32 32"><path fill="var(--color1, #212121)" d="M31.297 15.301C31.295 6.849 24.442-.002 15.989 0S.686 6.855.688 15.308a15.304 15.304 0 0010.649 14.576.662.662 0 00.529-.065.637.637 0 00.283-.356l3.865-12.25a1.912 1.912 0 10-.84-3.635l-5.106-5.107a.637.637 0 00-.902.902l5.103 5.109a1.876 1.876 0 00.536 2.309l-3.683 11.673C3.844 25.783.118 17.71 2.799 10.432S13.553-.572 20.831 2.109s11.004 10.754 8.323 18.032a14.042 14.042 0 01-7.462 7.973l-.398-1.874a.638.638 0 00-1.048-.344l-3.837 3.426a.637.637 0 00.231 1.084l4.899 1.563a.638.638 0 00.819-.74l-.391-1.839a15.255 15.255 0 009.329-14.089zm-15.305-.637a.638.638 0 110 1.277.638.638 0 010-1.277zm2.101 14.864l2.184-1.948.603 2.84-2.787-.892z"/><path fill="var(--color2, #2196f3)" d="M15.354 3.185V4.46a.638.638 0 101.276 0V3.185a.638.638 0 00-1.276 0zM3.876 14.664a.638.638 0 000 1.276h1.275a.638.638 0 100-1.276H3.876zM28.108 15.939a.638.638 0 100-1.276h-1.275a.638.638 0 000 1.276h1.275z"/></symbol><symbol id="icon-diagram" viewBox="0 0 32 32"><path fill="var(--color2, #2196f3)" d="M14.925 14.965h1.066v4.798h-1.066v-4.797zM19.19 17.097h1.066v2.665H19.19v-2.665zM10.661 18.696h1.066v1.066h-1.066v-1.066zM7.463 18.163h1.066v1.599H7.463v-1.599z"/><path fill="var(--color1, #212121)" d="M1.599 28.291h25.587a1.6 1.6 0 001.599-1.599V24.56a1.6 1.6 0 00-1.599-1.599h-.533V9.668L29.681 6.8a1.608 1.608 0 10-.746-.763L26.654 8.2V6.97a1.6 1.6 0 00-1.599-1.599H3.733A1.6 1.6 0 002.134 6.97v15.992h-.533a1.6 1.6 0 00-1.599 1.599v2.132a1.6 1.6 0 001.599 1.599zM30.384 4.837a.533.533 0 110 1.067.533.533 0 010-1.067zM3.198 6.969c0-.294.239-.533.533-.533h21.322c.294 0 .533.239.533.533v2.239l-1.066 1.013V8.035a.533.533 0 00-.533-.533H4.797a.533.533 0 00-.533.533v13.326c0 .294.239.533.533.533h19.19a.533.533 0 00.533-.533v-9.674l1.066-1.01v12.284H3.198V6.969zm4.798 6.929a1.598 1.598 0 101.107 2.749l1.853.93a.532.532 0 00.636-.123l3.939-4.431 3.872 2.901a.533.533 0 00.686-.039l3.365-3.188v8.131H5.33V8.568h18.124v2.66L19.683 14.8l-3.904-2.927a.533.533 0 00-.718.072l-3.993 4.493-1.493-.746c.011-.064.018-.129.02-.193A1.6 1.6 0 007.996 13.9zm.533 1.6a.533.533 0 11-1.067 0 .533.533 0 011.067 0zm3.198 8.528h5.331v.533a.533.533 0 01-.533.533h-4.264a.533.533 0 01-.533-.533v-.533zm-10.661.534c0-.294.239-.533.533-.533h9.062v.533a1.6 1.6 0 001.599 1.599h4.264a1.6 1.6 0 001.599-1.599v-.533h9.062c.294 0 .533.239.533.533v2.132a.533.533 0 01-.533.533H1.598a.533.533 0 01-.533-.533V24.56z"/></symbol><symbol id="icon-envelope" viewBox="0 0 32 32"><path fill="var(--color2, #2196f3)" d="M29 4H3C1.346 4 0 5.256 0 6.801v16.803c0 1.544 1.346 2.801 3 2.801h26c1.654 0 3-1.256 3-2.801V6.801C32 5.257 30.654 4 29 4zm0 1.867c.136 0 .265.026.383.072L16 16.767 2.617 5.939c.118-.046.247-.072.383-.072h26zm0 18.67H3c-.552 0-1-.418-1-.934V7.911l13.345 10.796c.188.152.422.228.655.228s.467-.076.655-.228L30 7.911v15.692c0 .515-.448.934-1 .934z"/></symbol><symbol id="icon-phone" viewBox="0 0 32 32"><path fill="var(--color3, #757575)" d="M23.467 0H8.534c-1.765 0-3.2 1.34-3.2 2.987v25.889c0 1.647 1.435 2.987 3.2 2.987h14.933c1.765 0 3.2-1.34 3.2-2.987V2.987c0-1.647-1.435-2.987-3.2-2.987zM8.533 1.991h14.933c.589 0 1.067.446 1.067.996v20.91H7.466V2.987c0-.549.478-.996 1.067-.996zm14.934 27.881H8.534c-.589 0-1.067-.446-1.067-.996v-2.987h17.067v2.987c0 .55-.478.996-1.067.996z"/></symbol><symbol id="icon-facebook" viewBox="0 0 32 32"><path fill="var(--color4, #afb1b8)" d="M21.329 5.313h2.921V.225C23.746.156 22.013 0 19.994 0c-4.212 0-7.097 2.649-7.097 7.519V12H8.249v5.688h4.648V32h5.699V17.689h4.46l.708-5.688h-5.169V8.082c.001-1.644.444-2.769 2.735-2.769z"/></symbol><symbol id="icon-instagram" viewBox="0 0 32 32"><path fill="var(--color4, #afb1b8)" d="M31.969 9.408c-.075-1.7-.35-2.869-.744-3.882a7.806 7.806 0 00-1.851-2.838A7.867 7.867 0 0026.542.844C25.523.45 24.36.175 22.66.1 20.947.019 20.403 0 16.059 0s-4.888.019-6.595.094c-1.7.075-2.869.35-3.882.744a7.803 7.803 0 00-2.838 1.85A7.867 7.867 0 00.9 5.52C.506 6.539.231 7.702.156 9.402c-.081 1.713-.1 2.257-.1 6.601s.019 4.888.094 6.595c.075 1.7.35 2.869.744 3.882a7.895 7.895 0 001.85 2.838 7.867 7.867 0 002.832 1.844c1.019.394 2.182.669 3.882.744 1.706.075 2.25.094 6.595.094s4.888-.019 6.595-.094c1.7-.075 2.869-.35 3.882-.744a8.184 8.184 0 004.682-4.682c.394-1.019.669-2.182.744-3.882.075-1.707.094-2.251.094-6.595s-.006-4.888-.081-6.595zm-2.882 13.065c-.069 1.563-.331 2.407-.55 2.969a5.31 5.31 0 01-3.038 3.038c-.563.219-1.413.481-2.969.55-1.688.075-2.194.094-6.464.094s-4.782-.019-6.464-.094c-1.563-.069-2.407-.331-2.969-.55a4.926 4.926 0 01-1.838-1.194 4.974 4.974 0 01-1.194-1.838c-.219-.563-.481-1.413-.55-2.969-.075-1.688-.094-2.194-.094-6.464s.019-4.782.094-6.464c.069-1.563.331-2.407.55-2.969a4.868 4.868 0 011.2-1.838A4.974 4.974 0 016.639 3.55c.563-.219 1.413-.481 2.969-.55 1.688-.075 2.194-.094 6.464-.094 4.276 0 4.782.019 6.464.094 1.563.069 2.407.331 2.969.55a4.914 4.914 0 011.838 1.194 4.974 4.974 0 011.194 1.838c.219.563.481 1.413.55 2.969.075 1.688.094 2.194.094 6.464s-.019 4.77-.094 6.458z"/><path fill="var(--color4, #afb1b8)" d="M16.059 7.783c-4.538 0-8.22 3.682-8.22 8.22s3.682 8.22 8.22 8.22c4.539 0 8.22-3.682 8.22-8.22s-3.682-8.22-8.22-8.22zm0 13.552a5.333 5.333 0 010-10.664 5.333 5.333 0 010 10.664zM26.524 7.458a1.919 1.919 0 11-3.838 0 1.919 1.919 0 013.838 0z"/></symbol><symbol id="icon-linkedin" viewBox="0 0 32 32"><path fill="var(--color4, #afb1b8)" d="M31.992 32v-.001H32V20.263c0-5.741-1.236-10.164-7.948-10.164-3.227 0-5.392 1.771-6.276 3.449h-.093v-2.913h-6.364v21.364h6.627V21.42c0-2.785.528-5.479 3.977-5.479 3.399 0 3.449 3.179 3.449 5.657v10.401h6.62zM.528 10.636h6.635V32H.528V10.636zM3.843 0C1.722 0 0 1.721 0 3.843s1.721 3.879 3.843 3.879c2.121 0 3.843-1.757 3.843-3.879A3.846 3.846 0 003.843 0z"/></symbol><symbol id="icon-twitter" viewBox="0 0 36 32"><path fill="var(--color4, #afb1b8)" d="M35.556 4.976c-1.322.58-2.731.964-4.2 1.151a7.247 7.247 0 003.207-4.029 14.561 14.561 0 01-4.622 1.764 7.306 7.306 0 00-5.324-2.307c-4.035 0-7.284 3.276-7.284 7.291 0 .578.049 1.133.169 1.662-6.06-.296-11.422-3.2-15.024-7.624a7.337 7.337 0 00-.998 3.684 7.3 7.3 0 003.238 6.058 7.188 7.188 0 01-3.293-.898v.08c0 3.542 2.527 6.484 5.84 7.162-.593.162-1.24.24-1.911.24-.467 0-.938-.026-1.38-.124.944 2.887 3.624 5.009 6.811 5.078a14.647 14.647 0 01-9.038 3.109 13.52 13.52 0 01-1.744-.1c3.229 2.082 7.056 3.271 11.182 3.271 13.413 0 20.747-11.111 20.747-20.742 0-.322-.011-.633-.027-.942 1.447-1.027 2.662-2.309 3.653-3.784z"/></symbol><symbol id="icon-instagram--footer" viewBox="0 0 32 32"><path fill="var(--color5, #fff)" opacity=".1" d="M32 16c0 4.418-1.791 8.418-4.686 11.314S20.419 32 16 32s-8.418-1.791-11.314-4.686C1.791 24.419 0 20.419 0 16S1.791 7.582 4.686 4.686 11.581 0 16 0c4.418 0 8.418 1.791 11.314 4.686S32 11.581 32 16z"/><path fill="var(--color5, #fff)" d="M23.258 13.004c-.034-.773-.159-1.304-.338-1.765a3.557 3.557 0 00-.841-1.29 3.589 3.589 0 00-1.287-.838c-.463-.179-.992-.304-1.764-.338-.779-.037-1.026-.046-3.001-.046s-2.222.009-2.998.043c-.773.034-1.304.159-1.764.338a3.557 3.557 0 00-1.29.841 3.589 3.589 0 00-.838 1.287c-.179.463-.304.992-.338 1.764-.037.779-.045 1.026-.045 3.001s.008 2.222.043 2.998c.034.773.159 1.304.338 1.765.185.489.472.926.841 1.29.364.369.804.656 1.287.838.463.179.992.304 1.765.338.776.034 1.023.043 2.998.043s2.222-.008 2.998-.043c.773-.034 1.304-.159 1.764-.338a3.72 3.72 0 002.128-2.128c.179-.463.304-.992.338-1.765.034-.776.043-1.023.043-2.998s-.003-2.222-.037-2.998zm-1.309 5.938c-.031.71-.151 1.094-.25 1.35a2.409 2.409 0 01-1.381 1.381c-.256.099-.642.219-1.35.25-.767.034-.997.043-2.938.043s-2.174-.008-2.938-.043c-.71-.031-1.094-.15-1.35-.25a2.228 2.228 0 01-.835-.543 2.264 2.264 0 01-.543-.835c-.099-.256-.219-.642-.25-1.35-.034-.767-.043-.997-.043-2.938s.008-2.174.043-2.938c.031-.71.151-1.094.25-1.35.117-.315.301-.602.546-.835.236-.242.52-.426.835-.543.256-.099.642-.219 1.35-.25.767-.034.997-.043 2.938-.043 1.944 0 2.174.008 2.938.043.71.031 1.094.151 1.35.25.315.116.602.301.835.543.241.236.426.52.543.835.099.256.219.642.25 1.35.034.767.043.997.043 2.938s-.009 2.168-.043 2.935z"/><path fill="var(--color5, #fff)" d="M16.027 12.265a3.737 3.737 0 000 7.472c2.063 0 3.737-1.674 3.737-3.736s-1.674-3.736-3.737-3.736zm0 6.16a2.424 2.424 0 110-4.849 2.424 2.424 0 010 4.849zM20.784 12.117a.872.872 0 11-1.744 0 .872.872 0 011.744 0z"/></symbol><symbol id="icon-twitter-footer" viewBox="0 0 36 32"><path fill="var(--color5, #fff)" d="M35.556 4.976c-1.322.58-2.731.964-4.2 1.151a7.252 7.252 0 003.207-4.029 14.561 14.561 0 01-4.622 1.764 7.306 7.306 0 00-5.324-2.307c-4.036 0-7.284 3.276-7.284 7.291 0 .578.049 1.133.169 1.662-6.06-.296-11.422-3.2-15.024-7.624a7.337 7.337 0 00-.998 3.684 7.3 7.3 0 003.238 6.058 7.188 7.188 0 01-3.293-.898v.08c0 3.542 2.527 6.484 5.84 7.162-.593.162-1.24.24-1.911.24-.467 0-.938-.027-1.38-.124.944 2.887 3.624 5.009 6.811 5.078a14.647 14.647 0 01-9.038 3.109 13.7 13.7 0 01-1.744-.1c3.229 2.082 7.056 3.271 11.182 3.271 13.413 0 20.747-11.111 20.747-20.742 0-.322-.011-.633-.027-.942 1.447-1.027 2.662-2.309 3.653-3.784z"/></symbol><symbol id="icon-facebook-footer" viewBox="0 0 32 32"><path fill="var(--color5, #fff)" opacity=".1" d="M32 16c0 4.418-1.791 8.418-4.686 11.314S20.419 32 16 32s-8.418-1.791-11.314-4.686C1.791 24.419 0 20.419 0 16S1.791 7.582 4.686 4.686 11.581 0 16 0c4.418 0 8.418 1.791 11.314 4.686S32 11.581 32 16z"/><path fill="var(--color5, #fff)" d="M18.422 11.142h1.328V8.829a17.317 17.317 0 00-1.935-.102c-1.915 0-3.226 1.204-3.226 3.418v2.037h-2.113v2.585h2.113v6.505h2.59v-6.505h2.027l.322-2.585h-2.35v-1.781c.001-.747.202-1.259 1.243-1.259z"/></symbol><symbol id="icon-linkedin-footer" viewBox="0 0 32 32"><path fill="var(--color5, #fff)" opacity=".1" d="M32 16c0 4.418-1.791 8.418-4.686 11.314S20.419 32 16 32s-8.418-1.791-11.314-4.686C1.791 24.419 0 20.419 0 16S1.791 7.582 4.686 4.686 11.581 0 16 0c4.418 0 8.418 1.791 11.314 4.686S32 11.581 32 16z"/><path fill="var(--color5, #fff)" d="M23.269 23.273v-.001h.004v-5.335c0-2.61-.562-4.62-3.613-4.62-1.467 0-2.451.805-2.853 1.568h-.042v-1.324h-2.893v9.711h3.012v-4.809c0-1.266.24-2.49 1.808-2.49 1.545 0 1.568 1.445 1.568 2.572v4.728h3.009zM8.967 13.562h3.016v9.711H8.967v-9.711zM10.474 8.727c-.964 0-1.747.782-1.747 1.747s.782 1.763 1.747 1.763c.964 0 1.747-.799 1.747-1.763s-.783-1.747-1.747-1.747z"/></symbol></defs></svg>